<svg xmlns="http://www.w3.org/2000/svg" version="1.1" xmlns:xlink="http://www.w3.org/1999/xlink" xmlns:svgjs="http://svgjs.dev/svgjs" viewBox="0 0 800 800"><defs><linearGradient x1="50%" y1="0%" x2="50%" y2="100%" id="ssscribble-grad"><stop stop-color="hsl(206, 75%, 49%)" stop-opacity="1" offset="0%"></stop><stop stop-color="hsl(331, 90%, 56%)" stop-opacity="1" offset="100%"></stop></linearGradient></defs><g fill="none" stroke-width="1.75" stroke="url(#ssscribble-grad)" stroke-linecap="round"><path d="M852.64 600.16C741.92 619 673.12 644.52 658.31 675.64 699.65 705.78 786.11 739.49 898.7 774.06 1017.99 804.18 1118.75 830.45 1183.38 848.49 1203.13 856.24 1173.87 849.86 1102.53 825.72 999.97 788.68 883.23 734.07 769.45 664.89 671.25 595.3 601.84 526.3 566.6 470.06 566.89 442.42 598.74 448.71 653.94 497.15 727.08 584.58 804.69 705.23 877.19 843.13 964.53 1018.25 1011.44 1041.86 971.96 868.66 924.7 734.32 867.18 630.24 804.17 593.14 735.14 641.47 666.91 766.72 602.34 936.09 538.06 1094.56 480.07 1192.38 428.99 1192.4 380.14 1094.49 337.96 931.47 301.87 764.89 267.42 664.54 237.79 671.11 212.28 787.95 187.28 969.13 165.45 1141.45 146.6 1229.83 127.75 1194.41 112.34 1051.79 100.63 865.4 89.43 711.25 82.89 651.54 81.8 704.67 82.35 847.47 89.61 1019 104.26 1152.84 121.15 1203.06 145.67 1150.79 177.29 1018.08 209.2 847.35 245.57 695.04 283.67 604.15 315.73 595.4 343.2 664.79 361.42 784.09 364.43 921.46 351.22 1033.89 318.33 1094.53 266 1093.03 194.03 1029.91 105.03 922.97 7.83 789.82 -93.29 658.63 -188.68 549.3 -292.56 451.92 -297.7 491.39 -190.73 580.66 -93.77 650.28 7.61 711.87 96.35 760.11 153.88 799.42 170.86 821.88 140.48 829.42 65.21 827.36 -44.54 814.72 -171.1 795.43 -290.97 771.34 -382.97 745.26 -428.04 720.03 -416.96 693.64 -350.06 670.45 -239.35 651.6 -109.26 632.75 12.86 618.69 102.9 608.38 144.44 596.89 131.22 586.8 68.77 575.35 -31.35 559.1 -146.89 536.84 -255.8 504.71 -341.69 462.98 -387.47 407.06 -387.28 335.1 -342.61 254.2 -260.86 160.77 -155.77 60.2 -40.02 -33.25 69.18 -116.83 159.25 -178.3 223 -206.59 254.28 -196.81 254.05 -145.33 224.32 -62.99 173.14 42.32 109.51 150.77 37.26 233.02 -31.38 272.64 -89.89 251.91 -137.96 169.04 -168.35 35.64 -180.75 -121.34 -177.46 -260.29 -158.2 -347.96 -126.48 -356.05 -83.61 -281.99 -33.88 -145.06 19.02 11.85 76.7 130.77 133.22 170.79 186.41 109.97 240.46 -34.47 289.4 -214.99 332.49 -365.09 375.23 -425.53 412.02 -371.42 442.73 -221.03 473.24 -38.37 498 102.36 516.85 137.85 535.7 49.52 548.19 -120.86 554.39 -298.33 560.4 -411.49 559.78 -412.56 552.58 -304.97 545.04 -131.13 531.02 40.9 511.16 149.47 492.16 160.13 469.12 74.6 444.1 -70.02 414.9 -280.55 398.63 -252.01 429.77 -36.88 471.21 112.9 529.65 219.98 604.68 265.64 690.15 246.04 784.68 173.28 881.63 71.02 969.97 -42.17 1044.68 -136.95 1096.68 -197.43 1119.17 -218.92 1108.89 -197.18 1064.77 -140.5 994.33 -55.24 903.39 43.8 804.45 144.33 716.16 244.46 649.77 330.92 618.89 400.63 632.51 457.44 690.54 497.3 787.05 523.76 906.59 539.92 1031.14 548.56 1138.54 553.99 1208.29 554.97 1227.08 557.43 1189.29 563.99 1103 569.58 982.8 581.31 852.7 600.15Q852.64 600.16 852.64 600.16" opacity="0.21"></path><path d="M813.64 637.86C675.21 661.4 676.87 678.01 806.91 666.36 1024.2 638.38 1153.52 570.48 1127.76 473.52 965.79 402.1 752.71 371.1 584.98 438 515.53 605.25 555.02 838.23 660.2 1024.41 795.36 1041.89 898.81 870.41 946.63 630.45 943.32 553.55 890.08 735.8 811.24 1042.54 711.63 1162.85 615.91 964.83 536.65 669.28 496.59 613.71 461.78 655.46 432.63 784.98 403.52 957.39 380.06 1112.33 362.56 1190.83 345.06 1162.03 333.93 1037.8 328.95 866.6 324.01 708.97 325.24 620.65 332.3 628 361.57 1008.38 432.53 696.61 379.7 575.8 277.93 785.83 124.23 995.2 -56.79 1044.37 -207.84 912.19 -288.84 688.05 -255.83 492.31 -124.55 374.71 57.14 360.03 193.45 403.13 193.55 486.29 44.31 555.43 -186.48 590.23 -325.85 609.27 -337.9 602.98 -200.35 580.42 -79.62 562.92 35.82 538.47 126.19 506.96 177.3 474.85 181.89 434.63 141.77 385.91 -39.75 285.11 -242.2 152.29 -346.57 8.47 -304.9 -95.29 -139.34 -138.27 64.21 -74.65 232.45 67.12 305.55 241.03 284.87 327.36 189.97 232.36 74.25 -18.49 -20.5 -264.98 -88.64 -301.54 -106.05 -91.21 -83.7 167 -33.55 176.34 31.71 -99.34 95.33 -365.36 129.25 -379.51 160.18 -296.38 187.11 -142.24 214.33 25.49 236.94 147.98 254.44 176.85 271.94 98.39 283.92 -54.74 290.8 -223.69 297.96 -349.79 300.62 -386.44 299.7 -324.15 302.09 -15.11 300.49 202.87 310.98 108.27 349.28 -172.8 424.32 -323.7 546.39 -210.4 695.1 65.98 861.07 278.99 1001.85 307.42 1068.43 167.15 1036.84 -15.57 905.06 -128.9 737.95 -141.89 603.76 -53.27 587.72 78.79 717.72 236.4 940.08 367.98 1135.14 461.97 1182.03 505.61 1182.61 541.25 1134.99 569.97 1048.1 597.84 934.43 620.34 813.7 637.85Q813.64 637.86 813.64 637.86" opacity="0.14"></path><path d="M774.64 284.04C609.75 316.34 592.1 318.05 718.41 297.53 918.56 286.72 1076.49 277.12 1117.67 298.76 1030.4 370.34 855.48 506.32 668.41 698.56 524.12 877.88 465.24 993.21 486.04 967.92 570.7 813.45 675.48 606.16 765.89 501.74 854.68 742.76 815.5 948.34 743.59 591.47 688.71 647.57 642.22 944.11 609.92 1151.83 577.61 1021.77 561.01 712 554.96 572.37 543.16 739.33 529.93 1015.64 501.75 1117.43 450.05 956.16 365.47 679.2 242.57 508.51 102.36 544.68 -48.79 728.69 -175.8 910.16 -238.94 993.93 -218.36 932.13 -107.72 780.28 45.7 586.9 191.64 427.02 255.23 324.47 190.37 267.32 14.05 250.21 -198.56 244.98 -337.34 252.05 -326.24 244.56 -161.35 212.26 58.56 179.95 205.38 124.37 206.03 56.36 67.23 0.66 -124.4 -41.01 -267.98 -39.87 -305.41 6.66 -218.56 113.32 -54.21 256.92 133.79 358.99 279.73 374.44 354.2 248.35 354.32 24.55 298.6 -197.78 220.67 -267.63 129.08 -130.62 59.18 117.36 19.81 254.98 -3.15 129.56 0.71 -165.11 21.65 -344.6 49.14 -217.51 81.78 85.7 114.09 215.85 146.4 8.19 176.85 -281.82 210.28 -325.53 250.27 -83.08 305.16 189.03 384.11 236.25 479.47 37.63 602.57 -200.55 743.96 -274.39 871.69 -136.37 973.8 109.2 1016.05 306.05 983.94 373.72 876.32 304.8 721.96 175.29 591.23 32.83 533.34 -49.95 594.42 -65.55 761.68 -31.22 971.7 37.12 1123 108.86 1134.85 190.32 994.61 251.71 774.7 284.03Q774.64 284.04 774.64 284.04" opacity="0.38"></path><path d="M735.64 121.08C579.52 150.7 544.06 188.45 635.05 241.67 808.71 305.04 976.76 399.6 1068.76 530.12 1057.07 666.11 946.73 809.1 784.86 915.12 614.19 939.75 485.44 864.4 418.54 699.57 414.28 536.48 458.18 454.9 523.6 538.06 605.28 758 672.77 995.27 716.43 1078.1 754.15 810.96 722.83 789.75 681.23 1112.83 651.61 1005.32 617.75 721.9 576.36 539.13 529.86 613.61 467.02 859.34 382.45 1051.44 287.47 1043.02 171.21 842.49 43.89 602.33 -67.17 458.57 -153.59 480.73 -188.14 615.73 -160.06 791.16 -66.43 905.71 73.39 926.84 204.43 863.13 288.2 744.14 278.18 615.09 164.48 478.9 -20.41 371.72 -205.5 296.27 -307.93 228.73 -278.47 182.73 -122.35 153.11 80.39 123.49 229.29 111.65 260.6 123.33 166.55 142.91 1.29 196.21 -157.33 281.07 -254.53 358.8 -249.24 429.03 -154.34 447.12 0.52 380.37 165.03 223.33 299.35 9.08 389.09 -164.75 422.41 -222.05 413.21 -109.17 368.64 100.13 313.73 274.14 265.94 260.9 200.81 -84.17 177.66 8.54 213.49 254.85 243.11 73.4 288.48 -203.74 350.18 -306 414.52 -146.81 498.48 127.2 599.88 287.52 699 226.44 802.69 15.75 892.91 -173.37 947.77 -225.73 956.98 -109.07 906.07 92.82 810.57 296.48 681.18 414.37 557.14 435.41 493.07 375.06 514.31 280.86 633.2 196.19 813.53 116.98 995.65 76.29 1101.16 68.76 1081.31 71.39 938.45 91.46 735.7 121.07Q735.64 121.08 735.64 121.08" opacity="0.60"></path><path d="M696.64 417.22C550.37 444.14 500.75 498.22 558.47 575.12 699.21 648.72 860.39 734.79 982.78 814.3 1034.76 861.55 998.13 865.14 893.29 803.54 745.86 696.41 596.64 554.9 475.1 434.57 390.15 406.88 351.87 498.92 349.95 699.84 379.07 913.11 420.39 1034.41 459.13 976.43 503.22 776.27 532.28 561.25 542.76 500.02 552.21 655.22 543.61 917.58 516.69 1073.83 489.77 987.24 445.79 735.57 385.56 527.9 324.31 515.26 246.26 692.01 155.52 912 70.11 1032.01 -15.54 971.82 -86.15 784.56 -125.72 565.22 -126.1 424.24 -76.44 399.61 9.81 481.05 127.1 611.62 246.5 731.33 323.31 823.24 335.79 854.36 264.07 836.77 121.95 784.15 -54.54 714.92 -205.68 650.01 -273.78 579.22 -229.62 527.25 -83.35 500.33 175.32 473.09 190.29 517.05 -24.71 533.15 -155.12 504.09 -216.77 428.66 -199.63 295.27 -113.25 134.06 16.67 -35.15 156.21 -151.91 289.92 -162.6 391.48 -53.57 456.32 137.72 489.4 296.96 495.54 333.05 488.34 193.34 467.29 -46.37 449.38 -238.46 442.89 -236.28 434.45 -39.04 442.37 207.18 469.29 293.85 496.21 137.66 540.86 -119.25 600.07 -264.11 657.34 -192.55 724.23 37.77 791.94 257.69 845.81 335.44 884.01 238.31 892.44 53.07 869.11 -119.82 806.21 -179.95 707.8 -116.98 603.54 38.63 505.52 218.8 447.16 367.42 458.04 470.52 543.82 511.27 693.95 510.68 936.36 459.28 952.64 391.04 696.7 417.21Q696.64 417.22 696.64 417.22" opacity="0.39"></path><path d="M657.64 685C522.25 709.23 462.27 734.75 490.08 755.05 594.68 767.44 735.14 760.29 866.52 722.29 961.18 665.77 990.31 577.09 954.78 470.83 865.49 389.6 744.94 348.75 619.07 385.22 497.51 504.04 401.33 686.96 334.63 875.2 292.5 984.52 273.79 965.66 268.58 812.49 275.9 611.53 283.65 469.53 284.44 487.55 287.64 667 278.52 902.68 254.29 1034.83 230.06 967.35 191.86 751.11 142.96 536.56 96.48 452.58 44.64 540.64 -4.66 728.76 -41.44 914.02 -62.64 989.51 -57.86 931.55 -28.5 770.53 32.87 580.75 122.68 430.38 216.79 348.2 308.61 347.44 372.67 400.77 382.96 493.11 332.11 583.23 219.69 650.1 70.54 705.66 -83.7 730.32 -197.65 731.14 -234.81 724.72 -179.74 706.63 -44.35 682.4 122.7 658.17 264.54 628.95 338.65 589.67 327.26 543.16 241.98 474.43 116.77 376.89 -18.75 268.03 -120.84 138.01 -168.62 8.31 -159.81 -82.37 -97.23 -116.43 -0.87 -66.04 118.1 52.55 235.53 213.6 337.4 349.41 426.71 382.17 492.33 284.99 537.79 81.99 570.43 -123.9 592.29 -225.79 610.43 -151.21 624.9 53.94 642.74 265.29 666.97 332.85 691.2 200.75 720.68 -30.01 751.9 -200.15 779.47 -208.88 801.69 -53.1 811.05 165.61 807.59 336.57 781.89 377.18 729.93 293.1 665.41 130.1 582.77 -24.1 495.55 -111.16 430.94 -115.88 397.07 -40.24 413.47 78.32 486.47 221.93 610.28 350.52 763.57 449.03 906.55 529.02 1005.64 580.26 1026.4 613.57 961.67 638.97 824.76 660.76 657.7 684.99Q657.64 685 657.64 685" opacity="0.96"></path><path d="M618.64 483.67C495.12 505.2 428.6 504.6 430.98 482.79 499.4 460.54 609.61 418.53 730.86 364.19 843.28 322.27 917.37 289.65 943.42 287.63 923.44 331 862.24 426.52 775.72 571 671 727.84 566.74 869.17 473.8 944.4 388.35 922.15 321.23 801.82 271.09 623 230.2 471.79 200.27 414.57 176.53 495.15 155.73 681.72 135.62 886.37 114.08 995.83 92.54 945.45 70.59 766.55 50.77 561.46 33.89 428.98 24.64 428.92 28.2 543.99 41.02 720.49 72.66 871.04 124.92 939.9 184.66 912.81 258 803.2 334.49 655.89 392.77 499.81 428.44 377.92 425.99 303.24 377.51 271.48 284.1 277.12 155.9 300.81 18.86 341.92 -103.6 377.78 -180.33 398.1 -191.02 419.85 -128.87 421.17 -5.35 399.63 143.34 378.1 276.59 334.74 362.07 272.37 383.18 211.43 340.7 136.39 252.81 57.94 136.34 -3.07 24.4 -44.19 -60.94 -45.65 -113.59 -4.19 -121.73 86.76 -91.45 214.61 -29.39 333.69 52.19 417.78 139.54 422.48 233.3 331.22 318.23 161.37 389.58 -30.91 456.83 -161.8 510.17 -174.04 550.94 -49.92 589.53 146.83 619.21 321.4 640.75 371.85 662.29 262.44 674.67 62.16 676.72 -116.12 676.57 -188.43 662.42 -118.99 632.5 47.99 598.48 242.61 549.02 382.27 488.47 426.97 434.3 374.18 383.63 258.38 349.79 129.78 347.73 13.51 381.39 -51.08 456.47 -61.25 564.23 -26.04 695.48 42.04 827.74 121.29 931.44 212.96 986.18 294.15 973.41 357.02 896.27 419.45 767.4 462.12 618.7 483.66Q618.64 483.67 618.64 483.67" opacity="0.93"></path><path d="M579.64 144.61C434.3 168.49 454.74 196.03 589.33 231.44 695.96 276.3 788.22 346.75 853.4 446.34 890.4 558.85 892.29 684.49 864.81 801.14 812.85 877.95 745.34 899.68 672.41 848.92 592.65 739.62 518.3 591.69 453.92 452.01 391.01 378.29 339.57 398.74 299.8 519.23 261.26 697.46 232.49 868.45 213.64 956.83 194.8 921.4 186.76 779.94 189.76 597.64 193.99 442.54 211.14 372.32 241.39 400.38 273.11 511.48 316.42 656.76 367.13 786.16 411.02 873.52 451.47 892.32 478.73 849.86 481.51 758.24 457.27 643.16 400.65 529.01 315.84 417.73 206.68 330.21 86.23 267.7 -24.46 219.63 -110.58 189.06 -152.94 168.08 -142.5 151.93 -77.07 136.31 33.64 117.46 163.74 98.62 285.51 77.44 375.68 58.04 420.87 43.47 416.43 39.75 369.84 55.14 288.58 84.98 193.66 141.46 102.61 223.69 20.37 308.79 -36.18 396.82 -64.05 463.76 -67.52 481.53 -46.05 440.41 -7.51 333.45 45.54 184.44 104.24 22.25 161.39 -102.68 222.3 -144.58 275.83 -85.13 318.82 62.67 362.01 237.69 393.77 375.36 412.62 410.85 431.47 322.52 436.52 155.35 428.88 -15.61 421.44 -128.87 402.19 -138.62 373.95 -51.11 349.45 102.37 321.79 267.21 297.77 396.15 288.28 466.54 293.85 467.17 322.01 415.06 374.58 323.11 453.47 224.53 555.33 141.07 666.01 70.52 777.83 31.11 872.91 18.91 933.33 23.35 948.52 43.24 910.62 68.8 827.74 99.02 709.8 125.75 579.7 144.6Q579.64 144.61 579.64 144.61" opacity="0.87"></path><path d="M540.64 225.92C375.75 258.22 353.2 346.62 456.22 492.53 630.71 638.18 773.48 791.78 835.5 845.2 827.1 746.14 757.73 515.91 674.44 338.24 575.97 415.5 501.79 710.11 469.48 917.83 437.17 787.76 449.79 481.4 492.28 328.8 519.57 439.81 538.52 669.35 504.58 814.2 400.21 823.47 223.17 709.39 25 576.47 -101.7 428.5 -92.24 332.65 72.64 300.34 292.56 268.01 440.8 302.29 456.86 394.26 350.73 471.19 200.04 534.88 81.39 483.3 -1.31 164.22 113.58 173.07 173.89 449.85 206.21 242.18 211.76 -39.36 210.69 -92.99 232.84 108.34 291.25 372.85 412.29 514.27 573.28 503.2 758.24 400.02 888.07 310.36 895.73 220.44 760.61 193.6 540.7 225.91Q540.64 225.92 540.64 225.92" opacity="0.59"></path><path d="M501.64 593.76C355.38 620.68 302.8 683.66 344.72 751.53 460.68 785.52 590.56 760.29 688.56 639.14 759.08 479.09 778.04 325.26 762.9 304.03 731.21 463.34 693.97 722.6 667.05 878.83 640.12 792.24 626.06 544.29 611.09 339.49 579.57 292.01 518.6 401.49 412.79 556.12 279.5 703.75 121.06 767.1 -14.62 762.86 -76.28 723.36 -34.61 674.17 111.64 647.25 296.74 620.32 444.07 618.21 506.95 611.06 479.5 568.64 392.05 463.27 293.56 280.37 189.32 90.45 122.81 -47.59 97.6 -19.88 85.44 165.14 97.85 402.19 124.77 488.85 151.69 332.66 190.57 84.3 249.38 -55.3 321.25 -14.37 429.77 168 569.29 363.35 703.08 519.8 819.1 587.05 866.3 599.72 823.18 578.51 686.79 566.83 501.7 593.75Q501.64 593.76 501.64 593.76" opacity="0.40"></path><path d="M462.64 642.67C339.13 664.2 271.16 657.99 265.06 615.52 315.72 560.83 395.93 461.77 475.98 342.53 560.05 265.04 617.73 252.41 644.63 348.88 664.73 528.76 662.19 730.38 640.66 839.83 619.12 789.45 580.62 613.48 523.19 419.06 458.96 278.02 367.67 240.45 255.36 281.74 147.09 379.9 44.03 476.73 -22.41 538.01 -32.1 593.19 27.13 608.72 150.64 587.18 299.34 565.64 432.05 509.07 518.19 416.57 550.98 317.96 534.73 187.52 492.02 61.13 425.56 -8.39 366.2 6.32 329.81 131.54 293.76 310.15 284.91 477.41 306.45 527.85 327.97 418.44 377.85 225.55 451.22 61.43 524.94 -19.27 617.92 16.18 712.61 121.9 783.56 269.37 822.67 402.06 805.68 494.07 735.35 573.86 611.39 621.12 462.7 642.66Q462.64 642.67 462.64 642.67" opacity="0.80"></path><path d="M423.64 292.14C258.76 324.44 226.68 245.36 278.35 195.94 383.32 302.84 444.75 593.13 412.44 800.83 380.13 670.76 260.21 371.56 112.89 211.72 18.87 199.58 24.76 251.31 189.64 219 409.57 186.69 560.36 76.47 602.34 46.26 569.97 163.76 534.27 436.76 566.58 566.83 598.88 359.13 693.09 95.04 767.8 30.47 768.18 122.24 643.6 259.82 423.7 292.13Q423.64 292.14 423.64 292.14" opacity="0.80"></path><path d="M384.64 119.14C261.14 140.68 190.39 191.85 169.75 305.76 182.6 456.84 195.32 652.4 173.79 761.83 152.25 711.45 100.52 541.28 59.44 384.01 51.86 244.44 105.14 170.28 228.64 148.74 377.34 127.2 508.87 162.36 588.48 273.7 639.49 402.74 665.45 555.45 686.99 605.83 708.53 496.4 721.57 318.31 698.78 195.46 647.41 109.78 533.34 97.6 384.64 119.14Q384.64 119.14 384.64 119.14" opacity="0.90"></path></g></svg>